<svg xmlns="http://www.w3.org/2000/svg" xmlns:xlink="http://www.w3.org/1999/xlink" width="301.53" height="230.477" viewBox="0 0 301.53 230.477"><defs><style>.a{fill:none;}.b{fill:#fff;}.c{fill:#5d7183;}.d{fill:#d5f2f8;}.e{fill:#f5bada;}.f{fill:#ffcac1;}.g{fill:#eee;}.h{clip-path:url(#a);}</style><clipPath id="a"><path class="a" d="M286,621.02c.034,0,1.892-13.16,2.1-14.034.7-2.958,1.462-5.9,2.318-8.815a109.667,109.667,0,0,1,8.014-20.293,81.745,81.745,0,0,1,4.492-7.527q1.126-1.674,2.335-3.291c.738-.988,2.943-3.721,2.943-3.721.852.094,1.94,1.727,2.474,2.262a32.954,32.954,0,0,0,5.472,4.249,19.334,19.334,0,0,0,5.4,2.8,42.6,42.6,0,0,0,2.472-4.14c.085-1.393,3.321,3.722,3.321,3.722.981-.439,2.735-1.531,3.654-2.088a17.338,17.338,0,0,1,2.672-1.848c1.246-.418,1.234,1.881,1.379,2.657q.49,2.628.871,5.275c.517,3.576,4.945,25.671,2.636,44.513C318.492,624.577,286.008,621.021,286,621.02Z" transform="translate(-286.002 -563.338)"/></clipPath></defs><g transform="translate(-55.999 -200.773)"><g transform="translate(-451.002 -97.896)"><g transform="translate(507.001 298.67)"><g transform="translate(0)"><g transform="translate(36.9 34.541)"><path class="b" d="M295.891,372.715c-.649,2.7.916,8.554.916,8.554s-5.408-3.374-8.436-3.935c-3.1-.574-8.852.517-8.852.517s3.312-4.244,3.943-6.872-.145-8.924-.145-8.924,4.344,2.827,7.446,3.4c2.732.506,9.081-.448,9.081-.448S296.611,369.722,295.891,372.715Z" transform="translate(-278.617 -361.691)"/><path class="c" d="M293.457,372.239c-.557,2.795.187,5.924.9,8.636l1.717-.539c-2.542-1.578-5.411-3.322-8.37-3.941-3.071-.643-6.538-.076-9.588.494l.709.177c1.684-2.173,3.648-4.778,4.068-7.554a31.51,31.51,0,0,0-.258-8.325l-1.717.539c2.53,1.633,5.5,3.315,8.554,3.567a38.32,38.32,0,0,0,8.643-.584l-.709-.177a26.338,26.338,0,0,0-3.953,7.706c-.1.371,1.623.143,1.744-.309a26.353,26.353,0,0,1,3.953-7.706c.188-.276-.689-.18-.709-.177a33.152,33.152,0,0,1-7.825.519c-2.855-.271-5.657-1.909-8.033-3.443-.289-.187-1.774.068-1.717.539a30.761,30.761,0,0,1,.264,8.23c-.427,2.747-2.381,5.33-4.051,7.483-.2.263.7.179.709.177,2.908-.544,6.3-1.133,9.188-.278a31.627,31.627,0,0,1,7.431,3.667c.266.165,1.836-.089,1.717-.539-.7-2.638-1.47-5.754-.928-8.472C295.282,371.526,293.545,371.8,293.457,372.239Z" transform="translate(-277.055 -361.061)"/></g><g transform="translate(181.577 65.506)"><path class="b" d="M687.2,462.8c-2.675.754-7.018,4.979-7.018,4.979s.3-6.366-.688-9.28c-1.014-2.986-4.778-7.468-4.778-7.468s5.323.814,7.926.081,7.717-4.488,7.717-4.488-.344,5.17.671,8.156c.894,2.63,4.829,7.7,4.829,7.7S690.163,461.967,687.2,462.8Z" transform="translate(-673.815 -446.281)"/><path class="c" d="M685.346,462.042c-2.879.934-5.378,3.157-7.518,5.227l1.678-.324a29.229,29.229,0,0,0-.536-8.761c-.8-2.956-2.995-5.669-4.93-7.987l-1.616.558c2.976.446,6.349.8,9.251-.173a30.713,30.713,0,0,0,7.918-4.642l-1.679.324c-.183,2.908-.227,6.249.994,8.946a36.04,36.04,0,0,0,4.505,6.911l1.616-.558a28.593,28.593,0,0,0-9.452.408c-1.02.259-.913.727.124.464a24.22,24.22,0,0,1,7.864-.229c.169.015,1.813-.3,1.616-.559a36.021,36.021,0,0,1-4.505-6.911c-1.222-2.7-1.177-6.038-.994-8.946.022-.345-1.546.228-1.679.324a36.422,36.422,0,0,1-6.125,3.817c-2.349,1.079-5.5.555-7.991.182-.184-.028-1.805.331-1.616.558,1.934,2.316,4.13,5.032,4.929,7.986a29.222,29.222,0,0,1,.536,8.761c-.015.325,1.54-.19,1.678-.324,1.834-1.773,4.061-3.934,6.519-4.731C687.138,461.974,686,461.83,685.346,462.042Z" transform="translate(-672.258 -445.681)"/></g><g transform="translate(136.041 26.584)"><path class="d" d="M565.441,366.527a16.071,16.071,0,0,1-6.674-9.1,29.166,29.166,0,0,0-3.571,2.394,3,3,0,1,1-3.677-4.754,30.347,30.347,0,0,1,7.388-4.35,32.555,32.555,0,0,1,4.7-8.672,3.005,3.005,0,0,1,4.768,3.659,24.823,24.823,0,0,0-2.423,3.863,12.782,12.782,0,0,1,8.588,5.821c2.19,3.532,1.919,8.283-.616,10.816a5.966,5.966,0,0,1-3.062,1.608A7.5,7.5,0,0,1,565.441,366.527Zm3.168-5.106a2.917,2.917,0,0,0,1.113.475,3.633,3.633,0,0,0-.3-3.342,6.371,6.371,0,0,0-4.968-3.081A10.124,10.124,0,0,0,568.609,361.421Z" transform="translate(-549.444 -340.303)"/><g transform="translate(0 11.166)"><path class="c" d="M554.34,369.964c-2.435,1.31-8.016,3.924-6.063,7.546a3.585,3.585,0,0,0,3.406,1.774c1.871-.094,3.165-1.417,4.648-2.4.993-.658-.542-.849-1.087-.488-1.036.686-2.567,2.159-3.819,1.776a2.7,2.7,0,0,1-1.706-3.071c.453-2.145,3.919-3.687,5.708-4.65,1.043-.562-.528-.789-1.087-.488Z" transform="translate(-547.87 -369.83)"/></g><g transform="translate(8.432)"><path class="c" d="M579.214,355.645c1.461.9,3.9,3.219,2.7,5.185l1.358-.486a6.683,6.683,0,0,1-3.754-3.259,7.524,7.524,0,0,1-.567-5.544,16.125,16.125,0,0,1,2.461-5.447,5.95,5.95,0,0,0,1.49-3.562c-.125-2.267-2.413-3.518-4.494-3.152-2.761.486-4.307,3.865-5.467,6.085-3.179,6.086-2.772,13.5,2.229,18.469,3.615,3.595,10.008,5.479,13.364.463,4.131-6.176-1.009-13.549-6.986-15.865-.7-.271-2.065.733-1.036,1.132,4.962,1.923,8.989,7.244,7.241,12.716-.8,2.49-2.911,4.282-5.624,3.852-2.884-.457-5.383-2.761-7.031-5.045-3.573-4.951-2.863-11.352,0-16.439.685-1.217,1.542-3.125,2.717-3.91,1.24-.829,2.829.169,3.2,1.446.4,1.378-.542,2.585-1.279,3.65a16.656,16.656,0,0,0-1.938,3.7c-.884,2.37-1.355,4.991-.313,7.385.812,1.864,2.679,4.012,4.755,4.461a1.26,1.26,0,0,0,1.358-.486c1.47-2.4-1.141-5.178-3-6.323-.617-.379-2.193.474-1.374.978Z" transform="translate(-570.904 -339.318)"/></g></g><g transform="translate(245.546 52.895)"><path class="d" d="M871.836,445.25a9.081,9.081,0,0,1-1.443.526,8.019,8.019,0,0,1-9.647-4.592,15.892,15.892,0,0,1-1.42-5.706c-1.638,1.416-3.716,4.152-3.787,5.744-.012.257.026.289.127.374a3,3,0,0,1-3.871,4.6,6.322,6.322,0,0,1-2.261-5.24c.209-4.649,4.862-9.414,6.952-10.874a12.511,12.511,0,0,1,3.607-1.669,24.742,24.742,0,0,1,2.978-6.673c3.669-5.764,8.983-9.063,14.58-9.049a3,3,0,1,1-.015,6.009c-3.44-.008-6.991,2.334-9.494,6.266a19.019,19.019,0,0,0-1.448,2.745,15.114,15.114,0,0,1,5.331,1.267,8.539,8.539,0,0,1,5.221,7.123A9.153,9.153,0,0,1,871.836,445.25ZM865.3,433.668a10.694,10.694,0,0,0,.888,4.958,2.105,2.105,0,0,0,2.64,1.349,3.226,3.226,0,0,0,2.433-3.349,2.553,2.553,0,0,0-1.774-2.207A9.912,9.912,0,0,0,865.3,433.668Z" transform="translate(-848.601 -412.15)"/><g transform="translate(0 16.61)"><path class="c" d="M855.053,465.14c-.845,1.121-2.57,3.207-1.8,4.69.416.8,1.042,1.1.979,2.188a2.273,2.273,0,0,1-1.764,2.086c-1.819.218-3.122-2.212-3.469-3.637-1.166-4.794,3.429-10.476,7.383-12.7,1.046-.589.1-1.505-.776-1.014-4.82,2.716-10.889,10.058-7.737,15.818,1.366,2.5,4.489,3.88,6.874,1.779a3.621,3.621,0,0,0,1.188-3.552c-.17-.667-.914-1.184-1.058-1.734-.272-1.041,1.126-2.716,1.654-3.418.671-.891-1-1.133-1.474-.5Z" transform="translate(-846.999 -456.609)"/></g><g transform="translate(9.891)"><path class="c" d="M883.629,427.491c4.169.821,7.859,3.393,8.26,7.912a8.556,8.556,0,0,1-6.895,9.169c-5.126.78-8.224-3.862-9.029-8.308a22.4,22.4,0,0,1,.333-7.1,20.29,20.29,0,0,1,2.184-6.734c2.1-3.942,5.367-7.577,9.592-9.247,1.735-.685,4.875-1.71,6.4-.193a2.77,2.77,0,0,1,.656,2.839c-.528,1.5-2.225,1.373-3.5,1.619-7.539,1.45-12.542,10.7-11.551,17.943.429,3.138,2.486,5.484,5.679,3.55A3.621,3.621,0,0,0,887.587,435c-.508-1.818-2.739-2.367-4.352-2.638-.565-.1-2.079.8-1.082.963,1.33.224,3.075.579,3.625,1.992.484,1.244-.6,4.018-2.36,3.157-1.945-.951-1.739-4.965-1.516-6.664.672-5.121,3.24-10.909,8.329-13,1.713-.7,3.693-.255,5.256-1.358a3.47,3.47,0,0,0,1.421-3.872c-1.121-3.474-6.039-2.327-8.57-1.479a20,20,0,0,0-9.524,7.173c-3.023,4.053-4.162,8.434-4.7,13.385-.454,4.136.763,9.116,4.4,11.572a9.625,9.625,0,0,0,9.81.15,9.761,9.761,0,0,0,5.28-9.945c-.664-4.57-4.66-7.076-8.889-7.909-.567-.112-2.08.767-1.082.963Z" transform="translate(-874.019 -411.218)"/></g></g><g transform="translate(70.29 76.451)"><path class="b" d="M371.114,499.02a9.136,9.136,0,0,1-.369-1.491,8.015,8.015,0,0,1,5.6-9.1,15.909,15.909,0,0,1,5.827-.8c-1.234-1.779-3.733-4.136-5.309-4.377-.254-.039-.29,0-.385.086A3,3,0,1,1,372.317,479a6.327,6.327,0,0,1,5.453-1.687c4.6.7,8.845,5.837,10.074,8.07a12.5,12.5,0,0,1,1.275,3.763,24.762,24.762,0,0,1,6.32,3.672c5.341,4.262,8.056,9.9,7.444,15.457a3.005,3.005,0,0,1-5.975-.657c.375-3.419-1.575-7.2-5.22-10.1a19.053,19.053,0,0,0-2.576-1.732,15.1,15.1,0,0,1-1.83,5.163,8.543,8.543,0,0,1-7.643,4.429A9.157,9.157,0,0,1,371.114,499.02Zm12.219-5.263a10.7,10.7,0,0,0-5.027.353,2.1,2.1,0,0,0-1.624,2.48,3.226,3.226,0,0,0,3.071,2.776,2.553,2.553,0,0,0,2.384-1.527A9.9,9.9,0,0,0,383.333,493.758Z" transform="translate(-369.764 -476.63)"/><g transform="translate(0.705)"><path class="c" d="M380.856,484.073c-1.13-1.058-3.146-3.053-4.905-2.331-.911.374-.735,1.141-2.286.676a2.609,2.609,0,0,1-1.549-1.676c-.624-2.082,1.421-3.548,3.229-3.868,4.89-.865,10.127,4.8,11.884,8.88.31.722,2.06.2,1.768-.474-2.261-5.252-8.923-11.524-15.081-9.189-2.66,1.009-5.429,4.422-2.418,6.813a3.987,3.987,0,0,0,3.388.7c.565-.128,1.448-.943,1.882-.955-.916.026.684.73.784.793a11.583,11.583,0,0,1,1.678,1.379c.532.5,2.2-.206,1.627-.746Z" transform="translate(-370.188 -475.589)"/></g><g transform="translate(0 10.574)"><path class="c" d="M386.295,515.118c-1.565,5.031-5.97,9.021-11.385,6.194a9.262,9.262,0,0,1-4.761-9.609c1.052-5.586,7.222-7.117,12.1-5.993,4.663,1.074,8.729,2.622,12.288,5.936a18.073,18.073,0,0,1,5.955,11.019,11.36,11.36,0,0,1,.011,3.032c-.235,1.376-1.538,2.629-2.947,1.717-1.871-1.209-1.034-3.547-1.417-5.365-.808-3.838-3.909-7.139-7.261-8.98-3.378-1.855-7.662-3.2-11.5-2.2a4.554,4.554,0,0,0-2.762,1.534c-.843,1.291-.1,3.1,1.039,3.959a4.009,4.009,0,0,0,3.642.448c1.823-.612,2.61-2.322,3.1-4.066.125-.445-1.613-.206-1.751.285-.4,1.43-1.348,4.151-3.332,2.7a3.114,3.114,0,0,1-1.245-2.945c.72-2.951,6.4-1.032,8.335-.334,4.556,1.645,9.1,5.294,10.02,10.31.316,1.73-.364,3.657,1.11,4.994a4.063,4.063,0,0,0,4.027.6c3.658-1.212,3.048-5.779,2.183-8.738a20.583,20.583,0,0,0-7.97-10.584,21.065,21.065,0,0,0-6.017-3.039,28.242,28.242,0,0,0-7.184-1.5c-3.569-.115-7.794.917-10.266,3.667a8.667,8.667,0,0,0-.828,10.053,9.679,9.679,0,0,0,10.05,4.712c4.389-.7,7.238-3.986,8.515-8.092.134-.431-1.6-.208-1.751.284Z" transform="translate(-368.263 -504.485)"/></g></g><g transform="translate(277.722 90.682)"><path class="e" d="M944.136,537.437l-6.729-7.762a1.177,1.177,0,0,1,.121-1.662l13.421-11.563a1.178,1.178,0,0,1,1.634.093l7,7.573a1.176,1.176,0,0,1-.1,1.691l-13.687,11.751A1.178,1.178,0,0,1,944.136,537.437Z" transform="translate(-936.305 -515.547)"/><g transform="translate(0)"><path class="c" d="M955.317,526.165l-8.774,7.559c-.628.541-2.247,2.5-3.052,2.206-.427-.158-.936-1.08-1.237-1.427l-2.436-2.81-2.09-2.411c-.4-.464-1.313-1.2-1.019-1.948.1-.251.7-.6.887-.765l2.259-1.946,5.586-4.812a35.8,35.8,0,0,1,4.218-3.634c.534-.326.446-.415.972.017a22.069,22.069,0,0,1,2.192,2.461l4.135,4.643c.528.592,2.207-.115,1.62-.775l-4.367-4.9c-1.091-1.224-2.476-3.636-4.446-3.052-1.392.413-2.7,2.04-3.746,2.943l-6.342,5.463c-1.356,1.168-2.859,2.27-4.115,3.545-1.582,1.606,0,2.9,1.1,4.172,1.629,1.88,3.205,3.827,4.9,5.651,1.247,1.343,2.566,1.227,3.92.1,3.724-3.094,7.341-6.325,11.009-9.485.907-.781-.5-1.369-1.17-.795Z" transform="translate(-934.893 -514.478)"/></g></g><g transform="translate(103.825 52.761)"><path class="e" d="M477.786,430.208l-8.408,2.951a1.107,1.107,0,0,1-1.354-.776l-5.819-16.728a1.114,1.114,0,0,1,.545-1.435l8.327-3.267a1.1,1.1,0,0,1,1.385.767l5.9,17.044A1.108,1.108,0,0,1,477.786,430.208Z" transform="translate(-461.302 -410.877)"/><path class="c" d="M471.047,414.616l3.593,10.329a26.859,26.859,0,0,1,1.387,3.987c.2,1.151-.192,1.022-1.016,1.312l-3.364,1.181-2.783.977a3.247,3.247,0,0,1-.977.342c-.426-.048-.264-.091-.425-.658-.345-1.216-.838-2.408-1.253-3.6q-2.125-6.108-4.249-12.216c-.147-.423-.581-1.358-.269-1.772s1.909-.7,2.38-.877l5.676-2.091c1.167-.43.089-.866-.662-.59l-5.981,2.2c-1.382.509-3.552.86-3.2,2.781a32.941,32.941,0,0,0,1.565,4.5l2.656,7.635a34.128,34.128,0,0,0,1.565,4.5c.907,1.741,2.674.838,4.092.34,2.209-.776,4.527-1.425,6.681-2.345,1.693-.723,1.435-1.791.94-3.213l-4.591-13.2c-.185-.532-1.939-.018-1.768.474Z" transform="translate(-459.868 -410.852)"/></g><g transform="translate(192.05 18.244)"><path class="e" d="M711.711,339.473l-8.1-3.719a1.107,1.107,0,0,1-.434-1.5l7.447-16.071a1.114,1.114,0,0,1,1.39-.653l8.258,3.435a1.1,1.1,0,0,1,.463,1.513l-7.608,16.354A1.108,1.108,0,0,1,711.711,339.473Z" transform="translate(-702.253 -317.12)"/><g transform="translate(0)"><path class="c" d="M717.257,324.59l-4.666,10.07-1.164,2.511a4.4,4.4,0,0,1-.557,1.2c-.415.373.509-.016.021.074-.159.03-.662-.3-.821-.377l-3.24-1.488c-1.19-.547-4.618-1.354-4.155-3.09a23.355,23.355,0,0,1,1.609-3.473l5.438-11.736c.015-.031.576-1.09.209-.952.3-.113,1.749.771,2.024.892l5.832,2.571c.407.179,2.016-.469,1.443-.722L713.4,317.5c-1.5-.66-3.338-1.73-4.747-.175-.905,1-1.361,2.726-1.916,3.922l-3.519,7.594a48.671,48.671,0,0,0-2.235,4.824c-.63,1.889,1.461,2.283,2.819,2.907a46.347,46.347,0,0,0,5.782,2.656c1.766.524,2.815-.669,3.465-2.071l5.96-12.861c.153-.331-1.528-.186-1.749.292Z" transform="translate(-700.866 -316.526)"/></g></g><g transform="translate(10.862 125.531)"><path class="e" d="M229.625,622.328l-5.32,7.146a1.108,1.108,0,0,1-1.557.113l-14.181-10.617a1.114,1.114,0,0,1-.351-1.494l5.076-7.362a1.1,1.1,0,0,1,1.577-.139L229.3,620.809A1.107,1.107,0,0,1,229.625,622.328Z" transform="translate(-207.277 -609.712)"/><g transform="translate(0 0.352)"><path class="c" d="M214.952,612.656l8.756,6.555a26.6,26.6,0,0,1,3.408,2.551c1.138,1.2-1.486,3.6-2.217,4.576l-1.976,2.655c-.159.213-.4.7-.618.83-.409.238.168.068-.135-.015s-.716-.537-.972-.728l-2.31-1.729-10.24-7.666c-.557-.418-1.146-.775-.916-1.591a9.142,9.142,0,0,1,1.483-2.057l3.536-4.906c.477-.662-1.3-.542-1.651-.055l-3.536,4.906c-.873,1.211-2.493,2.62-1.078,4.012a38.634,38.634,0,0,0,4.041,3.025l6.468,4.843c1.174.879,2.328,1.908,3.578,2.679,1.78,1.1,3-.145,4-1.493,1.414-1.9,2.959-3.75,4.263-5.726.927-1.4.067-2.15-1.056-2.991l-11.189-8.377c-.511-.383-2.143.324-1.639.7Z" transform="translate(-205.928 -610.673)"/></g></g><g transform="translate(143.062 93.545)"><ellipse class="b" cx="5.408" cy="5.41" rx="5.408" ry="5.41" transform="matrix(0.186, -0.983, 0.983, 0.186, 0, 10.628)"/><g transform="translate(0.044 0.353)"><path class="c" d="M573.117,524.38c4.736.213,6.883,7.066,2.282,9.313-2.242,1.095-4.924-.261-5.958-2.381a5.107,5.107,0,0,1,1.143-5.943c.761-.737-.965-.842-1.442-.381a5.89,5.89,0,0,0-.792,7.907,6.4,6.4,0,0,0,7.348,1.83,6.158,6.158,0,0,0,4.018-6.223,5.989,5.989,0,0,0-5.943-5.235c-.746-.033-1.853,1.059-.658,1.113Z" transform="translate(-567.171 -523.267)"/></g></g><g transform="translate(217.307 102.912)"><ellipse class="f" cx="5.41" cy="5.407" rx="5.41" ry="5.407" transform="translate(0.857 0.411)"/><g transform="translate(0)"><path class="c" d="M775.568,548.723c4.6.206,7.173,6.536,2.989,9.339-2.324,1.557-5.334.033-6.434-2.261a5.309,5.309,0,0,1,1.233-6.164c.435-.422-1.273-.274-1.62.062a5.687,5.687,0,0,0-.573,7.825,6.411,6.411,0,0,0,7.177,1.534,5.723,5.723,0,0,0-1.651-11.156c-.446-.02-2.034.78-1.12.821Z" transform="translate(-769.861 -547.901)"/></g></g><g transform="translate(37.373 87.248)"><ellipse class="f" cx="5.41" cy="5.407" rx="5.41" ry="5.407" transform="translate(0.857 0.422)"/><path class="c" d="M284.056,505.94c4.637.208,7.121,6.475,2.983,9.316-2.3,1.582-5.341.021-6.431-2.249a5.3,5.3,0,0,1,1.235-6.156c.45-.436-1.268-.3-1.624.045a5.7,5.7,0,0,0-.57,7.837,6.419,6.419,0,0,0,7.18,1.545A5.739,5.739,0,0,0,285.17,505.1c-.463-.021-2.039.8-1.114.844Z" transform="translate(-278.346 -505.095)"/></g><g transform="translate(95.758 18.012)"><ellipse class="b" cx="5.41" cy="5.407" rx="5.41" ry="5.407" transform="translate(0.876 0.672)"/><path class="c" d="M443.819,317.234c4.53.2,6.811,6.45,2.521,8.9-4.792,2.731-8.882-4.222-5.21-7.78.856-.829-.519-1.512-1.188-.864a6.1,6.1,0,0,0-1.051,8,6.389,6.389,0,0,0,7.4,2.148,6.056,6.056,0,0,0-1.875-11.744c-.894-.04-1.788,1.289-.6,1.343Z" transform="translate(-437.832 -315.891)"/></g><g transform="translate(283.301 140.642)"><ellipse class="b" cx="5.41" cy="5.407" rx="5.41" ry="5.407" transform="translate(0.856 0.39)"/><path class="c" d="M955.833,651.787c4.664.209,7.109,6.528,3,9.38-2.308,1.6-5.355-.013-6.44-2.281a5.33,5.33,0,0,1,1.229-6.179c.408-.395-1.28-.231-1.612.091a5.661,5.661,0,0,0-.579,7.8,6.4,6.4,0,0,0,7.171,1.514,5.982,5.982,0,0,0,4.078-5.793,5.73,5.73,0,0,0-5.717-5.315c-.419-.019-2.026.74-1.131.78Z" transform="translate(-950.132 -651.006)"/></g><g transform="translate(0 85.09)"><ellipse class="b" cx="5.41" cy="5.407" rx="5.41" ry="5.407" transform="translate(0.825 0.669)"/><path class="c" d="M182.192,500.535c4.686.21,6.856,6.9,2.219,9.076a4.577,4.577,0,0,1-5.784-2,4.965,4.965,0,0,1,1.028-6.1c.8-.772-.9-1.137-1.491-.564-4.878,4.728.432,12.383,6.615,9.953A6.051,6.051,0,0,0,182.79,499.2c-.891-.04-1.789,1.283-.6,1.336Z" transform="translate(-176.256 -499.198)"/></g><g transform="translate(160.289)"><ellipse class="f" cx="5.41" cy="5.407" rx="5.41" ry="5.407" transform="translate(0.856 0.345)"/><path class="c" d="M619.8,267.359c4.708.211,7.143,6.7,2.951,9.5-2.309,1.543-5.3-.1-6.378-2.355a5.387,5.387,0,0,1,1.22-6.212c.339-.329-1.293-.136-1.594.157a5.6,5.6,0,0,0-.593,7.752,6.38,6.38,0,0,0,7.159,1.468,5.909,5.909,0,0,0,4.1-5.73,5.671,5.671,0,0,0-5.7-5.269c-.362-.016-2,.651-1.155.689Z" transform="translate(-614.108 -266.67)"/></g><g transform="translate(241.939 28.708)"><ellipse class="b" cx="5.41" cy="5.407" rx="5.41" ry="5.407" transform="translate(0.824 0.66)"/><g transform="translate(0)"><path class="c" d="M843.078,346.442c4.689.21,6.86,6.912,2.224,9.095a4.579,4.579,0,0,1-5.785-2.012,4.976,4.976,0,0,1,1.025-6.112c.794-.77-.9-1.114-1.487-.55-4.88,4.729.433,12.363,6.61,9.936a6.04,6.04,0,0,0-1.983-11.676c-.879-.04-1.795,1.265-.6,1.319Z" transform="translate(-837.146 -345.122)"/></g></g></g></g></g><g transform="translate(-19844.996 9227)"><g transform="translate(20020.537 -8800.015)"><g transform="translate(0 0)"><path class="g" d="M292.4,1021.881a1.791,1.791,0,0,0,.526.9,5.915,5.915,0,0,0,3.719,1.6c.6.026,1.225.049,1.872.059s1.315.01,2-.021c1.375-.056,2.825-.269,4.324-.464a30.637,30.637,0,0,1,4.624-.3,40.959,40.959,0,0,1,4.774.326l2.4.27,1.192.107,1.185.075c1.575.082,3.125.157,4.624.208s2.949.061,4.324.015,2.674-.135,3.874-.213c1.2-.1,2.3-.2,3.275-.316.279-.03.569-.035.789-.676a1.484,1.484,0,0,0,.072-.672c-.03-.169-.1-.212-.159-.239a1.71,1.71,0,0,0-.7-.172c-.975-.121-2.075-.214-3.275-.317-1.2-.078-2.5-.171-3.874-.213s-2.825-.046-4.324.016-3.05.125-4.624.208l-1.185.075-1.192.106-2.4.27a40.839,40.839,0,0,1-4.774.326,30.614,30.614,0,0,1-4.624-.3c-1.5-.2-2.95-.409-4.324-.465q-1.031-.047-2-.021c-1.75.027-3.5-.907-5.245-1.552-.227-.084-.751-.252-.892.557A2.013,2.013,0,0,0,292.4,1021.881Z" transform="translate(-292.342 -1020.421)"/></g></g><g transform="translate(19992.311 -8963.981)"><g transform="translate(28.175 107.67)"><path class="g" d="M304.347,788.787l45.285-.575c-.247,10.16-4.05,58.594-7.087,58.6-2.879,0-4.675-6.778-5.37-9.736-1.183-5.038-2.467-10.053-3.635-15.094-.908-3.921-3.881-13.363-5.945-19.522-5.639,19.434-11.8,44.979-15.647,44.979-1.771,0-2.078-2.157-2.545-3.891C308.125,838.791,303.838,796.844,304.347,788.787Z" transform="translate(-303.801 -788.212)"/><path class="b" d="M357.163,808.083c-.887,15.734-4.076,53.758-6.87,53.758-2.558,0-4.675-6.778-5.37-9.736-1.183-5.038-2.467-10.053-3.635-15.094-.692-2.985-4.229-14.308-5.9-19.381-.673-2.044,0-.269,0,0-5.4,16.324-11.032,44.805-15.692,44.837-.6,0-.669-2.157-1.136-3.891-1.017-3.777-3.252-31.046-4.012-46.126a3.912,3.912,0,0,1,4.271-4.1A194.761,194.761,0,0,0,357.163,808.083Z" transform="translate(-311.548 -803.245)"/><g transform="translate(0 5.264)"><path class="c" d="M302.234,810.37c.323,7.675,1.028,15.34,1.762,22.984.709,7.394,1.456,14.8,2.482,22.154a39.442,39.442,0,0,0,1.2,6.181c.419,1.364,1.23,2.692,2.862,2.444a3.119,3.119,0,0,0,1.793-1.082c1.593-1.76,2.44-4.271,3.248-6.456,1.354-3.662,2.448-7.421,3.521-11.173,2.83-9.9,5.289-19.936,8.775-29.632.161-.447-1.026-.308-1.181.125-2.957,8.224-5.162,16.7-7.5,25.117-1.077,3.87-2.161,7.741-3.385,11.568a49.74,49.74,0,0,1-3.267,8.417,6.333,6.333,0,0,1-1.557,2.169c-1.258.911-2-1.332-2.254-2.256a45.12,45.12,0,0,1-1.051-5.549c-.969-6.894-1.677-13.829-2.355-20.756-.8-8.171-1.57-16.366-1.916-24.571-.018-.435-1.2-.184-1.175.315Z" transform="translate(-302.234 -809.831)"/></g><g transform="translate(24.204 4.471)"><path class="c" d="M401.721,819.536c3.472,9.879,5.828,20.035,8.252,30.209.767,3.221,1.443,6.833,3.4,9.578.8,1.115,2.721,2.493,3.864,1.012a10.211,10.211,0,0,0,1.284-3.948c.538-2.488.918-5.011,1.272-7.531.967-6.882,1.66-13.8,2.287-20.725.647-7.142,1.215-14.294,1.623-21.454.013-.227-1.153-.07-1.175.315-.721,12.649-1.792,25.311-3.351,37.884-.57,4.6-1.03,9.387-2.355,13.846-.161.543-.408,1.037-.6,1.562a1.791,1.791,0,0,1-.222.3c.184-.341.688.134.179-.214-.115-.078-.341-.14-.449-.2a3.412,3.412,0,0,1-.73-.612c-2.06-2.169-2.808-5.73-3.485-8.551-2.564-10.693-4.973-21.393-8.624-31.781-.112-.32-1.276.027-1.175.315Z" transform="translate(-401.714 -806.573)"/></g></g><g transform="translate(0 0)"><g transform="translate(73.38 29.942)"><path class="c" d="M488.041,503.047c6.781,3.9,15.347,1.829,20.714-3.525,4.96-4.947,7.213-12,8.746-18.663.42-1.825.786-3.661,1.132-5.5.153-.817.636-5.947,1.615-5.912.237.008,1.328-.434.769-.454a2.372,2.372,0,0,0-2.667,1.806c-.352,1.511-.555,3.07-.84,4.6a102.189,102.189,0,0,1-2.337,10.189c-1.9,6.43-4.98,13.175-10.938,16.776a14.663,14.663,0,0,1-15.085.3c-.283-.163-1.228.322-1.11.391Z" transform="translate(-488.031 -468.989)"/></g><path class="b" d="M311.7,430.16c.653-1.756-.124-4.361-.152-6.3a75.617,75.617,0,0,1-.045-8.662l.212-2.121c1.186-11.83,7.839-20.9,14.259-20.254s10.664,10.758,9.477,22.588l-.213,2.12a72.026,72.026,0,0,1-1.458,9.334,31.465,31.465,0,0,1-.995,3.33c-.6,1.681.29,2.95.677,4.479,4.312,17.006,4.969,35.63,3.1,53.044-9.728,1.923-14.373,1.6-21.1,1.779C308.109,489.7,286,488,286,488c6-32.347,15.308-46.21,25.257-57.193Z" transform="translate(-261.777 -381.406)"/><path class="d" d="M286,621.02c.034,0,1.892-13.16,2.1-14.034.7-2.958,1.462-5.9,2.318-8.815a109.667,109.667,0,0,1,8.014-20.293,81.745,81.745,0,0,1,4.492-7.527q1.126-1.674,2.335-3.291c.738-.988,2.943-3.721,2.943-3.721.852.094,1.94,1.727,2.474,2.262a32.954,32.954,0,0,0,5.472,4.249,19.334,19.334,0,0,0,5.4,2.8,42.6,42.6,0,0,0,2.472-4.14c.085-1.393,3.321,3.722,3.321,3.722.981-.439,2.735-1.531,3.654-2.088a17.338,17.338,0,0,1,2.672-1.848c1.246-.418,1.234,1.881,1.379,2.657.327,1.752,5.217,20.949,3.508,49.788C315.695,624.577,286.008,621.021,286,621.02Z" transform="translate(-261.777 -510.423)"/><g transform="translate(24.225 52.915)"><g class="h"><g transform="translate(-18.765 -10.115)"><path class="b" d="M290.182,526.842c20.407,8.539,42.223,14.747,64.551,13.28l.32-4.024c-22.059,1.059-43.517-5.5-63.492-14.3Z" transform="translate(-270.4 -521.797)"/><path class="b" d="M278.79,568.38c21.273,7.986,43.829,13.451,66.687,11.143l.318-3.993c-22.6,1.883-44.775-3.962-65.617-12.228Z" transform="translate(-261.78 -553.197)"/><path class="b" d="M267.324,610.185c22.155,7.38,45.461,12.061,68.846,8.88l.315-3.963c-23.122,2.74-46.051-2.338-67.764-10.027Z" transform="translate(-253.104 -584.798)"/><path class="b" d="M255.785,652.257c23.041,6.733,47.126,10.577,71.026,6.491l.313-3.932c-23.64,3.629-47.339-.635-69.933-7.7Z" transform="translate(-244.372 -616.601)"/><path class="b" d="M244.171,694.6c23.94,6.039,48.816,9,73.231,3.976l.31-3.9c-24.159,4.55-48.634,1.139-72.126-5.249Z" transform="translate(-235.584 -648.608)"/><path class="b" d="M232.483,737.215c24.85,5.289,50.53,7.323,75.457,1.336.123-1.546.185-2.321.308-3.873-24.671,5.5-49.947,3-74.341-2.672Z" transform="translate(-226.74 -680.822)"/><path class="b" d="M220.718,780.007c25.764,4.5,52.272,5.551,77.707-1.431.122-1.535.183-2.3.306-3.844-25.18,6.481-51.276,4.935-76.579.032Z" transform="translate(-217.837 -713.145)"/><path class="b" d="M208.877,814.386c26.685,3.661,54.037,3.683,79.981-4.323l.3-3.815c-25.688,7.49-52.62,6.951-78.841,2.862Z" transform="translate(-208.877 -736.986)"/></g></g></g><path class="c" d="M405.029,571.082a24.249,24.249,0,0,1-5.008,3.148c-.491-.614-.959-1.248-1.43-1.876-.409-.545-1.029-1.958-1.849-1.935-.578.017-.832.555-1.1.97L394,573.981c-.414.65-.289.847-.9.524-.74-.391-1.48-.765-2.2-1.2a34.3,34.3,0,0,1-8.238-6.426c-.328-.371-1.373.07-1.008.484a31.6,31.6,0,0,0,6.685,5.494,26.481,26.481,0,0,0,4.178,2.41,1.625,1.625,0,0,0,2.271-.75q.646-1.011,1.288-2.025l.633-1a23.178,23.178,0,0,1,1.361,1.983c.394.518.782,1.045,1.2,1.548a.644.644,0,0,0,.747.08,25.84,25.84,0,0,0,5.745-3.528C406.332,571.1,405.451,570.732,405.029,571.082Z" transform="translate(-334.097 -512.997)"/><g transform="translate(50.564 50.572)"><path class="c" d="M413.265,556.986c-3.037,2.417-6.623,3.476-10.405,2.245a16.865,16.865,0,0,1-7.473-5.443c-.2-.235-1.309.168-1.1.412,2.448,2.918,5.664,5.36,9.509,5.958a13.405,13.405,0,0,0,10.382-3.107c.475-.378-.686-.242-.908-.066Z" transform="translate(-394.257 -553.717)"/></g><path class="b" d="M353.844,745.1a6.636,6.636,0,0,1-2.667,6.525,5.22,5.22,0,0,1-6.4-.664,6.787,6.787,0,0,1-1.47-6.954,15.78,15.78,0,0,0,6.795.749Z" transform="translate(-304.842 -647.099)"/><g transform="translate(37.522 96.685)"><path class="c" d="M351.544,744.571c.521,3.576-2.119,8.3-6.318,6.562-3.021-1.252-4.03-5.013-3.054-7.922l-1.133.3a17.291,17.291,0,0,0,7.091.772c.29-.027,1.281-.506.519-.436a15.913,15.913,0,0,1-6.5-.725c-.235-.077-1.037.017-1.133.3-1.315,3.92,1.022,8.664,5.513,8.53a6.568,6.568,0,0,0,6.191-7.7c-.029-.2-1.215.041-1.175.315Z" transform="translate(-340.651 -743.1)"/></g><path class="d" d="M415.039,353.028c-.681,7.742-3.536,15.509-12.753,15.774-5.376.155-10.752,1.993-14.455,6.016-4.037,4.38-2.533-7.413-2.143-8.949A18.178,18.178,0,0,1,397.25,353.18c1.822-.7,18-5.1,17.917-7.161A56.121,56.121,0,0,1,415.039,353.028Z" transform="translate(-336.756 -346.019)"/><g transform="translate(23.631 10.997)"><path class="c" d="M322.4,442.017a224.617,224.617,0,0,1,.414,34.534q-.228,4.078-.574,8.149c-.1,1.2-.221,2.408-.334,3.612-.144,1.547-.147,3.1-2.041,3.457a23.149,23.149,0,0,1-3.953.081q-2.088.01-4.176-.014-4.164-.047-8.325-.214c-6.357-.247-12.716-.637-19.05-1.233l.38.336c1.824-13.62,4.771-27.339,10.69-39.818a80.5,80.5,0,0,1,7.018-12.026c1.2-1.688,2.459-3.326,3.774-4.921,1.194-1.45,2.555-2.793,3.7-4.275a5.174,5.174,0,0,0,.688-3.926c-.246-2.295-.44-4.582-.471-6.892a47.256,47.256,0,0,1,1.329-12.875A25.569,25.569,0,0,1,317,395.361c2.671-2.9,6.609-4.663,10.132-2.057,2.848,2.107,4.345,5.8,5.164,9.127a39.244,39.244,0,0,1,.638,12.689,58,58,0,0,1-2.242,12.887,6.513,6.513,0,0,0-.533,2.512,12.7,12.7,0,0,0,.76,2.72c.51,1.695.863,3.454,1.246,5.181,3.39,15.262,5.234,31.206,4.375,46.846q-.146,2.651-.424,5.292l.5-.418a87.756,87.756,0,0,1-13.947,1.613c-.635.034-.932.825-.125.782a89.723,89.723,0,0,0,14.266-1.671c.183-.04.473-.2.5-.418,1.674-15.892.035-32.271-3.032-47.9a106.055,106.055,0,0,0-2.67-11.073c-.662-2.13.556-4.26,1.029-6.34a67.145,67.145,0,0,0,1.165-6.937c.909-7.625,1.337-16.7-3.477-23.226-1.833-2.484-4.6-4.167-7.772-3.721-3.319.468-5.974,2.895-7.886,5.5-5.068,6.913-6.006,15.847-5.64,24.173q.069,1.572.207,3.14a23.361,23.361,0,0,1,.29,3.65c-.1,1.353-.923,2.085-1.766,3.038-1.33,1.505-2.625,3.042-3.865,4.622a81.159,81.159,0,0,0-7.523,11.416c-6.256,11.538-9.659,24.444-11.8,37.325q-.557,3.35-1,6.716c-.029.219.2.32.379.336,6.1.573,12.219.954,18.338,1.2q4.629.189,9.262.245c2.616.027,5.319.168,7.929-.033a3.57,3.57,0,0,0,3.548-3.434c.191-2.882.526-5.756.729-8.639q.646-9.187.7-18.4a199.021,199.021,0,0,0-.864-20.411c-.047-.481-1.227-.207-1.175.315Z" transform="translate(-283.557 -391.182)"/></g><path class="c" d="M442.859,525.788a2.7,2.7,0,0,1-.427-1.4c-.106-1.156-.046-2.349-.111-3.518a31.844,31.844,0,0,1,4.355.209c.627.076-.477,2.845-.6,3.146C445.644,525.3,444.048,527.367,442.859,525.788Z" transform="translate(-380.063 -478.289)"/><g transform="translate(41.826 61.975)"><path class="c" d="M358.345,605.033a4.366,4.366,0,0,0,6.043.626c1.624-1.356.342-3.7-.645-5.029-.206-.277-1.256.207-1.175.315a6.25,6.25,0,0,1,1.409,3.134,1.893,1.893,0,0,1-.651,1.678c-1.247,1-3.009-.046-3.807-1.04-.22-.274-1.251.22-1.175.315Z" transform="translate(-358.341 -600.546)"/></g><g transform="matrix(0.719, 0.695, -0.695, 0.719, 33.559, 53.433)"><path class="c" d="M16.087.506A54.3,54.3,0,0,0,5.855,13.632c-2.693,4.858-4.7,10.347-4.68,15.964A17.8,17.8,0,0,0,7.45,43.45c3.727,3.133,9.2,5.518,14.033,3.624,1.983-.778,3.286-2.575,5.295-3.276,1.487-.519,2.941.02,2.631,1.775-.058.328-1.241.055-1.175-.315.093-.528.26-1.012-.315-1.006a3.426,3.426,0,0,0-1.28.587c-.768.452-1.372,1.079-2.09,1.6A10.337,10.337,0,0,1,18.837,48.3c-4.47.158-8.943-1.9-12.31-4.733A18.006,18.006,0,0,1,.052,30.748C-.32,25.267,1.363,19.828,3.8,14.978A53.975,53.975,0,0,1,14.988.074c.263-.247,1.356.19,1.1.433Z"/></g></g></g></g></g></svg>